<svg xmlns="http://www.w3.org/2000/svg" width="1100" height="620" viewBox="0 0 1100 620">
<rect width="100%" height="100%" fill="#ffffff"/>
<style>text{font-family:Segoe UI,Arial,sans-serif;fill:#1f2937}.muted{fill:#6b7280}.grid{stroke:#e5e7eb;stroke-width:1}.axis{stroke:#9ca3af;stroke-width:1.2}.zero{stroke:#111827;stroke-width:1.2;stroke-dasharray:5 5}</style>
<text x="82" y="34" font-size="22" font-weight="700">ETH Up or Down 5m Down 2 bps Reference Average Premarket</text>
<text x="82" y="58" font-size="14" class="muted">Paper cumulative PnL, 1009 settled records, total +214.43 USD, ROI +3.54%</text>
<line x1="82" y1="542" x2="1066" y2="542" class="grid"/>
<text x="70" y="546" font-size="12" text-anchor="end" class="muted">-42.96</text>
<line x1="82" y1="427" x2="1066" y2="427" class="grid"/>
<text x="70" y="431" font-size="12" text-anchor="end" class="muted">68.02</text>
<line x1="82" y1="312" x2="1066" y2="312" class="grid"/>
<text x="70" y="316" font-size="12" text-anchor="end" class="muted">179</text>
<line x1="82" y1="197" x2="1066" y2="197" class="grid"/>
<text x="70" y="201" font-size="12" text-anchor="end" class="muted">289.98</text>
<line x1="82" y1="82" x2="1066" y2="82" class="grid"/>
<text x="70" y="86" font-size="12" text-anchor="end" class="muted">400.96</text>
<line x1="82" y1="497.48" x2="1066" y2="497.48" class="zero"/>
<line x1="82" y1="82" x2="82" y2="542" class="axis"/>
<line x1="82" y1="542" x2="1066" y2="542" class="axis"/>
<polyline fill="none" stroke="#147d55" stroke-width="2.5" stroke-linejoin="round" stroke-linecap="round" points="82,491.97 82.98,486.22 83.95,480.24 84.93,474.01 85.9,467.78 86.88,461.6 87.86,455.37 88.83,461.6 89.81,467.82 90.79,474.05 91.76,468.07 92.74,462.09 93.71,456.1 94.69,450.12 95.67,443.64 96.64,437.66 97.62,431.18 98.6,424.95 99.57,431.18 100.55,424.69 101.52,430.92 102.5,437.15 103.48,431.17 104.45,425.18 105.43,431.41 106.4,437.64 107.38,432.54 108.36,438.77 109.33,433.02 110.31,439.25 111.29,433.73 112.26,427.98 113.24,421.75 114.21,415.77 115.19,409.29 116.17,415.51 117.14,408.49 118.12,402.01 119.1,395.78 120.07,389.3 121.05,382.56 122.02,388.78 123,395.01 123.98,401.24 124.95,407.46 125.93,401.94 126.9,408.17 127.88,402.42 128.86,396.67 129.83,402.9 130.81,396.67 131.79,402.9 132.76,409.13 133.74,403.14 134.71,397.16 135.69,403.39 136.67,397.64 137.64,391.66 138.62,385.68 139.6,379.69 140.57,373.71 141.55,367.73 142.52,361.5 143.5,367.73 144.48,373.95 145.45,380.18 146.43,386.41 147.4,380.56 148.38,386.79 149.36,380.8 150.33,374.82 151.31,369.07 152.29,375.3 153.26,381.53 154.24,375.78 155.21,368.76 156.19,374.99 157.17,381.21 158.14,375.47 159.12,369.85 160.1,376.08 161.07,370.56 162.05,365.12 163.02,359.37 164,353.62 164.98,359.85 165.95,366.08 166.93,360.33 167.9,366.55 168.88,372.78 169.86,367.03 170.83,361.29 171.81,367.51 172.79,361.99 173.76,356.01 174.74,350.03 175.71,344.28 176.69,338.53 177.67,332.55 178.64,326.8 179.62,321.28 180.6,327.5 181.57,321.76 182.55,327.98 183.52,322.68 184.5,328.9 185.48,335.13 186.45,341.36 187.43,336.11 188.4,342.34 189.38,337.03 190.36,331.94 191.33,338.16 192.31,344.39 193.29,350.62 194.26,345.06 195.24,339.32 196.21,345.55 197.19,340.03 198.17,346.25 199.14,352.48 200.12,346.82 201.1,341.07 202.07,347.3 203.05,341.07 204.02,335.09 205,341.32 205.98,335.34 206.95,341.56 207.93,347.79 208.9,354.02 209.88,347.54 210.86,353.76 211.83,347.28 212.81,353.51 213.79,347.53 214.76,341.54 215.74,334.23 216.71,328.01 217.69,334.23 218.67,328.48 219.64,334.71 220.62,328.96 221.6,335.19 222.57,341.42 223.55,336.32 224.52,330.58 225.5,324.59 226.48,318.84 227.45,313.32 228.43,307.1 229.4,301.35 230.38,296.25 231.36,290.95 232.33,284.72 233.31,279.2 234.29,273.22 235.26,279.44 236.24,285.67 237.21,279.93 238.19,274.42 239.17,268.2 240.14,268.14 241.12,274.35 242.1,268.38 243.07,262.41 244.05,256.19 245.02,249.72 246,255.94 246.98,250.42 247.95,244.45 248.93,238.48 249.9,244.69 250.88,239.18 251.86,245.4 252.83,251.61 253.81,246.64 254.79,241.24 255.76,241.18 256.74,247.4 257.71,253.62 258.69,247.4 259.67,253.62 260.64,247.4 261.62,253.62 262.6,247.85 263.57,242.11 264.55,236.14 265.52,242.35 266.5,248.57 267.48,242.96 268.45,242.9 269.43,237.38 270.4,243.6 271.38,237.94 272.36,232.42 273.33,226.45 274.31,220.48 275.29,226.69 276.26,232.91 277.24,239.13 278.21,245.34 279.19,251.56 280.17,257.78 281.14,252.48 282.12,246.73 283.1,240.74 284.07,234.52 285.05,228.29 286.02,221.81 287,214.79 287.98,221.01 288.95,227.24 289.93,221.26 290.9,227.49 291.88,233.71 292.86,228.41 293.83,234.63 294.81,229.33 295.79,223.35 296.76,217.12 297.74,223.33 298.71,229.55 299.69,223.08 300.67,229.3 301.64,235.51 302.62,241.73 303.6,236.22 304.57,242.44 305.55,236.7 306.52,242.91 307.5,236.94 308.48,243.16 309.45,237.64 310.43,231.9 311.4,238.12 312.38,231.11 313.36,225.14 314.33,219.4 315.31,213.66 316.29,219.88 317.26,226.09 318.24,232.31 319.21,227.33 320.19,222.25 321.17,216.27 322.14,222.49 323.12,216.52 324.1,222.73 325.07,228.95 326.05,235.17 327.02,229.21 328,222.74 328.98,216.77 329.95,222.98 330.93,229.2 331.9,223.24 332.88,229.46 333.86,224.37 334.83,230.59 335.81,225.08 336.79,231.29 337.76,226 338.74,232.22 339.71,226.48 340.69,232.69 341.67,238.91 342.64,233.82 343.62,228.21 344.6,234.43 345.57,228.46 346.55,234.67 347.52,229.38 348.5,223.86 349.48,218.35 350.45,212.74 351.43,218.96 352.4,212.98 353.38,219.2 354.36,225.42 355.33,231.64 356.31,237.85 357.29,244.07 358.26,238.56 359.24,244.77 360.21,250.99 361.19,245.69 362.17,240.35 363.14,246.56 364.12,252.78 365.1,259 366.07,265.22 367.05,259.92 368.02,266.14 369,272.35 369.98,278.57 370.95,273.28 371.93,268.39 372.9,263.2 373.88,258.01 374.86,264.24 375.83,258.65 376.81,252.9 377.79,259.13 378.76,265.36 379.74,271.58 380.71,266.69 381.69,272.92 382.67,267.3 383.64,261.55 384.62,267.78 385.6,274 386.57,268.48 387.55,263.18 388.52,257.66 389.5,251.91 390.48,245.92 391.45,239.44 392.43,245.67 393.4,251.9 394.38,258.12 395.36,253.03 396.33,247.72 397.31,253.95 398.29,247.97 399.26,254.2 400.24,260.42 401.21,254.44 402.19,248.46 403.17,241.15 404.14,234.45 405.12,227.43 406.1,233.66 407.07,225.73 408.05,231.96 409.02,225.73 410,231.96 410.98,238.19 411.95,244.41 412.93,250.64 413.9,256.87 414.88,251.56 415.86,245.81 416.83,252.03 417.81,246.52 418.79,241 419.76,247.23 420.74,253.46 421.71,248.36 422.69,242.84 423.67,236.86 424.64,243.09 425.62,249.3 426.6,243.32 427.57,237.57 428.55,243.8 429.52,237.87 430.5,231.89 431.48,238.12 432.45,244.33 433.43,250.55 434.4,256.77 435.38,251.25 436.36,257.47 437.33,263.69 438.31,258.08 439.29,251.61 440.26,245.14 441.24,251.35 442.21,244.88 443.19,238.15 444.17,244.36 445.14,250.58 446.12,244.61 447.1,250.82 448.07,257.04 449.05,263.26 450.02,257.52 451,263.74 451.98,257.76 452.95,252.02 453.93,258.24 454.9,264.46 455.88,270.68 456.86,265.16 457.83,271.38 458.81,265.42 459.79,271.64 460.76,277.86 461.74,284.07 462.71,290.29 463.69,296.51 464.67,291.81 465.64,286.7 466.62,281.08 467.6,275.1 468.57,269.12 469.55,262.65 470.52,256.43 471.5,262.65 472.48,256.17 473.45,249.7 474.43,242.97 475.4,235.67 476.38,229.45 477.36,235.67 478.33,241.89 479.31,236.15 480.29,229.93 481.26,236.15 482.24,242.36 483.21,248.58 484.19,242.96 485.17,249.19 486.14,243.88 487.12,238.36 488.1,232.38 489.07,225.9 490.05,219.15 491.02,225.38 492,218.9 492.98,225.13 493.95,218.64 494.93,224.87 495.9,231.1 496.88,224.87 497.86,231.1 498.83,224.62 499.81,230.84 500.79,237.07 501.76,243.3 502.74,237.55 503.71,231.8 504.69,225.58 505.67,219.24 506.64,225.47 507.62,219.24 508.6,212.76 509.57,218.99 510.55,213.01 511.52,206.78 512.5,213.01 513.48,207.02 514.45,213.25 515.43,219.48 516.4,213 517.38,206.25 518.36,199.23 519.33,205.46 520.31,199.23 521.29,205.46 522.26,199.71 523.24,193.96 524.21,187.73 525.19,181.51 526.17,187.73 527.14,193.96 528.12,200.19 529.1,194.44 530.07,200.67 531.05,206.89 532.02,201.37 533,195.62 533.98,189.88 534.95,183.89 535.93,177.91 536.9,172.16 537.88,178.39 538.86,172.54 539.83,178.77 540.81,172.79 541.79,179.01 542.76,185.24 543.74,179.26 544.71,185.48 545.69,191.71 546.67,185.96 547.64,192.19 548.62,186.89 549.6,180.91 550.57,187.14 551.55,193.37 552.52,188.18 553.5,194.4 554.48,189.1 555.45,195.33 556.43,189.8 557.4,183.96 558.38,190.18 559.36,183.7 560.33,177.48 561.31,171.49 562.29,177.72 563.26,183.95 564.24,190.17 565.21,184.19 566.19,190.42 567.17,196.65 568.14,202.87 569.12,209.1 570.1,203.58 571.07,209.8 572.05,205.39 573.02,211.61 574,217.84 574.98,212.51 575.95,218.74 576.93,224.97 577.9,219.59 578.88,225.82 579.86,232.04 580.83,238.27 581.81,244.5 582.79,239.4 583.76,245.63 584.74,240.34 585.71,246.56 586.69,241.47 587.67,234.99 588.64,227.96 589.62,220.82 590.6,213.9 591.57,206.59 592.55,199.28 593.52,191.97 594.5,198.19 595.48,204.42 596.45,210.65 597.43,204.17 598.4,210.39 599.38,216.62 600.36,210.64 601.33,204.89 602.31,211.12 603.29,217.34 604.26,211.36 605.24,217.59 606.21,211.15 607.19,217.38 608.17,223.61 609.14,229.84 610.12,236.06 611.1,230.97 612.07,225.66 613.05,220.77 614.02,227 615,221.48 615.98,215.95 616.95,222.18 617.93,228.41 618.9,234.63 619.88,229.54 620.86,235.77 621.83,241.99 622.81,236.9 623.79,243.13 624.76,237.15 625.74,231.85 626.71,238.08 627.69,232.55 628.67,238.78 629.64,233.48 630.62,227.25 631.6,220.77 632.57,227 633.55,220.77 634.52,214.79 635.5,208.6 636.48,214.83 637.45,208.84 638.43,201.82 639.4,195.08 640.38,188.6 641.36,194.82 642.33,201.05 643.31,195.3 644.29,189.32 645.26,183.34 646.24,176.59 647.21,169.28 648.19,175.51 649.17,181.73 650.14,175.51 651.12,181.73 652.1,175.43 653.07,169.2 654.05,162.45 655.02,156.02 656,162.25 656.98,156.26 657.95,150.28 658.93,156.51 659.9,150.53 660.88,156.75 661.86,150.53 662.83,156.75 663.81,162.98 664.79,157 665.76,163.22 666.74,157.48 667.71,151.95 668.69,158.18 669.67,164.41 670.64,170.63 671.62,164.89 672.6,158.66 673.57,152.58 674.55,146.59 675.52,152.82 676.5,147.52 677.48,153.74 678.45,159.97 679.43,154.22 680.4,148.47 681.38,142.25 682.36,136.02 683.33,129.93 684.31,136.16 685.29,142.39 686.26,148.62 687.24,154.84 688.21,148.62 689.19,142.13 690.17,148.36 691.14,142.38 692.12,148.61 693.1,154.83 694.07,149.31 695.05,155.54 696.02,150.23 697,156.46 697.98,151.04 698.95,145.74 699.93,151.96 700.9,145.98 701.88,152.21 702.86,158.43 703.83,152.72 704.81,158.94 705.79,165.17 706.76,171.4 707.74,166.09 708.71,160.79 709.69,167.02 710.67,173.24 711.64,167.62 712.62,173.85 713.6,168.1 714.57,162.35 715.55,155.33 716.52,148.59 717.5,154.81 718.48,149.07 719.45,143.08 720.43,136.86 721.4,143.08 722.38,137.56 723.36,132.04 724.33,126.52 725.31,132.74 726.29,138.97 727.26,145.2 728.24,139.45 729.21,133.7 730.19,127.47 731.17,133.7 732.14,139.93 733.12,134.18 734.1,140.41 735.07,134.89 736.05,141.11 737.02,147.34 738,153.57 738.98,148.26 739.95,143.17 740.93,137.86 741.9,144.09 742.88,150.32 743.86,156.54 744.83,151.24 745.81,145.49 746.79,151.72 747.76,157.94 748.74,152.64 749.71,158.87 750.69,153.77 751.67,160 752.64,166.23 753.62,172.45 754.6,167.26 755.57,161.86 756.55,168.09 757.52,162.56 758.5,168.79 759.48,163.27 760.45,157.96 761.43,164.19 762.4,170.42 763.38,176.64 764.36,182.87 765.33,177.98 766.31,172.23 767.29,178.46 768.26,184.69 769.24,190.91 770.21,186.02 771.19,180.39 772.17,186.62 773.14,181.53 774.12,175.39 775.1,181.61 776.07,175.14 777.05,169.15 778.02,175.38 779,169.15 779.98,175.38 780.95,181.61 781.93,176.09 782.9,182.31 783.88,175.83 784.86,169.09 785.83,161.48 786.81,154.89 787.79,147.58 788.76,153.81 789.74,147.32 790.71,153.55 791.69,147.32 792.67,153.55 793.64,159.78 794.62,166.01 795.6,172.23 796.57,178.46 797.55,173.36 798.52,168.06 799.5,174.29 800.48,180.51 801.45,186.74 802.43,181.65 803.4,175.66 804.38,181.89 805.36,188.12 806.33,194.34 807.31,188.82 808.29,195.05 809.26,189.53 810.24,195.75 811.21,190.01 812.19,184.02 813.17,190.25 814.14,183.66 815.12,189.89 816.1,196.12 817.07,190.13 818.05,184.16 819.02,190.39 820,183.64 820.98,189.87 821.95,196.1 822.93,188.79 823.9,182.56 824.88,188.79 825.86,182.56 826.83,188.79 827.81,195.01 828.79,189.27 829.76,195.49 830.74,201.72 831.71,207.95 832.69,202.43 833.67,208.65 834.64,203.35 835.62,209.58 836.6,203.85 837.57,198.1 838.55,204.33 839.52,210.56 840.5,204.57 841.48,198.59 842.45,191.57 843.43,185.09 844.4,178.63 845.38,184.86 846.36,179.34 847.33,185.57 848.31,179.82 849.29,186.04 850.26,192.27 851.24,198.5 852.21,204.73 853.19,210.95 854.17,217.18 855.14,223.41 856.12,218.9 857.1,225.12 858.07,219.6 859.05,214.71 860.02,220.94 861,227.16 861.98,221.86 862.95,228.09 863.93,234.31 864.9,228.57 865.88,234.79 866.86,228.81 867.83,222.58 868.81,228.81 869.79,222.83 870.76,216.6 871.74,209.58 872.71,201.65 873.69,207.88 874.67,201.65 875.64,194.63 876.62,200.86 877.6,207.08 878.57,200.86 879.55,207.08 880.52,201.34 881.5,194.86 882.48,188.63 883.45,182.65 884.43,188.87 885.4,182.89 886.38,189.12 887.36,195.34 888.33,189.36 889.31,195.59 890.29,201.82 891.26,196.07 892.24,190.32 893.21,184.34 894.19,190.56 895.17,196.79 896.14,203.02 897.12,209.24 898.1,215.47 899.07,221.7 900.05,227.93 901.02,222.62 902,216.64 902.98,210.66 903.95,204.32 904.93,210.55 905.9,204.16 906.88,210.39 907.86,203.91 908.83,197.91 909.81,204.14 910.79,198.39 911.76,192.41 912.74,198.64 913.71,204.86 914.69,211.09 915.67,217.32 916.64,223.54 917.62,218.24 918.6,212.72 919.57,218.94 920.55,225.17 921.52,231.4 922.5,237.63 923.48,232.32 924.45,238.55 925.43,244.77 926.4,239.67 927.38,234.34 928.36,240.57 929.33,235.05 930.31,241.27 931.29,235.75 932.26,229.77 933.24,223.29 934.21,229.51 935.19,223.77 936.17,217.92 937.14,211.44 938.12,217.66 939.1,223.89 940.07,217.91 941.05,224.13 942.02,218.15 943,224.38 943.98,218.29 944.95,224.52 945.93,218.04 946.9,224.27 947.88,230.5 948.86,236.72 949.83,242.95 950.81,249.18 951.79,244.29 952.76,239.59 953.74,234.28 954.71,240.51 955.69,234.53 956.67,228.55 957.64,221.52 958.62,227.75 959.6,221.77 960.57,215.02 961.55,221.25 962.52,227.48 963.5,233.7 964.48,239.93 965.45,246.16 966.43,240.63 967.4,246.86 968.38,253.09 969.36,259.32 970.33,265.54 971.31,271.77 972.29,266.78 973.26,261.26 974.24,267.49 975.21,273.72 976.19,279.94 977.17,286.17 978.14,281.08 979.12,275.89 980.1,282.11 981.07,288.34 982.05,294.57 983.02,289.26 984,283.74 984.98,277.76 985.95,283.99 986.93,278 987.9,272.02 988.88,278.25 989.86,272.26 990.83,278.49 991.81,272.51 992.79,266.53 993.76,272.75 994.74,267 995.71,273.23 996.69,279.46 997.67,285.69 998.64,280.7 999.62,275.59 1000.6,269.6 1001.57,275.83 1002.55,270.03 1003.52,264.04 1004.5,270.27 1005.48,276.5 1006.45,282.72 1007.43,277.2 1008.4,283.43 1009.38,277.45 1010.36,271.46 1011.33,265.24 1012.31,258.75 1013.29,264.98 1014.26,258.76 1015.24,264.99 1016.21,259 1017.19,265.23 1018.17,271.46 1019.14,277.68 1020.12,283.91 1021.1,278.82 1022.07,273.51 1023.05,279.74 1024.02,273.76 1025,279.98 1025.98,286.21 1026.95,280.69 1027.93,286.91 1028.9,293.14 1029.88,299.37 1030.86,294.48 1031.83,288.76 1032.81,282.78 1033.79,289 1034.76,295.23 1035.74,289.71 1036.71,284.19 1037.69,290.41 1038.67,284.43 1039.64,278.45 1040.62,272.22 1041.6,278.45 1042.57,271.97 1043.55,265.74 1044.52,271.97 1045.5,265.22 1046.48,271.45 1047.45,265.46 1048.43,259.03 1049.4,265.26 1050.38,271.48 1051.36,277.71 1052.33,272.31 1053.31,278.54 1054.29,273.23 1055.26,267.71 1056.24,273.94 1057.21,280.17 1058.19,274.42 1059.17,280.64 1060.14,275.12 1061.12,281.35 1062.1,287.58 1063.07,281.83 1064.05,276.08 1065.02,282.31 1066,275.29"/>
<circle cx="82" cy="491.97" r="2.4" fill="#147d55" stroke="#ffffff" stroke-width="1"/>
<circle cx="92.74" cy="462.09" r="2.4" fill="#147d55" stroke="#ffffff" stroke-width="1"/>
<circle cx="104.45" cy="425.18" r="2.4" fill="#147d55" stroke="#ffffff" stroke-width="1"/>
<circle cx="116.17" cy="415.51" r="2.4" fill="#147d55" stroke="#ffffff" stroke-width="1"/>
<circle cx="127.88" cy="402.42" r="2.4" fill="#147d55" stroke="#ffffff" stroke-width="1"/>
<circle cx="139.6" cy="379.69" r="2.4" fill="#147d55" stroke="#ffffff" stroke-width="1"/>
<circle cx="151.31" cy="369.07" r="2.4" fill="#147d55" stroke="#ffffff" stroke-width="1"/>
<circle cx="163.02" cy="359.37" r="2.4" fill="#147d55" stroke="#ffffff" stroke-width="1"/>
<circle cx="174.74" cy="350.03" r="2.4" fill="#147d55" stroke="#ffffff" stroke-width="1"/>
<circle cx="186.45" cy="341.36" r="2.4" fill="#147d55" stroke="#ffffff" stroke-width="1"/>
<circle cx="198.17" cy="346.25" r="2.4" fill="#147d55" stroke="#ffffff" stroke-width="1"/>
<circle cx="209.88" cy="347.54" r="2.4" fill="#147d55" stroke="#ffffff" stroke-width="1"/>
<circle cx="221.6" cy="335.19" r="2.4" fill="#147d55" stroke="#ffffff" stroke-width="1"/>
<circle cx="233.31" cy="279.2" r="2.4" fill="#147d55" stroke="#ffffff" stroke-width="1"/>
<circle cx="245.02" cy="249.72" r="2.4" fill="#147d55" stroke="#ffffff" stroke-width="1"/>
<circle cx="256.74" cy="247.4" r="2.4" fill="#147d55" stroke="#ffffff" stroke-width="1"/>
<circle cx="268.45" cy="242.9" r="2.4" fill="#147d55" stroke="#ffffff" stroke-width="1"/>
<circle cx="280.17" cy="257.78" r="2.4" fill="#147d55" stroke="#ffffff" stroke-width="1"/>
<circle cx="291.88" cy="233.71" r="2.4" fill="#147d55" stroke="#ffffff" stroke-width="1"/>
<circle cx="303.6" cy="236.22" r="2.4" fill="#147d55" stroke="#ffffff" stroke-width="1"/>
<circle cx="315.31" cy="213.66" r="2.4" fill="#147d55" stroke="#ffffff" stroke-width="1"/>
<circle cx="327.02" cy="229.21" r="2.4" fill="#147d55" stroke="#ffffff" stroke-width="1"/>
<circle cx="338.74" cy="232.22" r="2.4" fill="#147d55" stroke="#ffffff" stroke-width="1"/>
<circle cx="350.45" cy="212.74" r="2.4" fill="#147d55" stroke="#ffffff" stroke-width="1"/>
<circle cx="362.17" cy="240.35" r="2.4" fill="#147d55" stroke="#ffffff" stroke-width="1"/>
<circle cx="373.88" cy="258.01" r="2.4" fill="#147d55" stroke="#ffffff" stroke-width="1"/>
<circle cx="385.6" cy="274" r="2.4" fill="#147d55" stroke="#ffffff" stroke-width="1"/>
<circle cx="397.31" cy="253.95" r="2.4" fill="#147d55" stroke="#ffffff" stroke-width="1"/>
<circle cx="409.02" cy="225.73" r="2.4" fill="#147d55" stroke="#ffffff" stroke-width="1"/>
<circle cx="420.74" cy="253.46" r="2.4" fill="#147d55" stroke="#ffffff" stroke-width="1"/>
<circle cx="432.45" cy="244.33" r="2.4" fill="#147d55" stroke="#ffffff" stroke-width="1"/>
<circle cx="444.17" cy="244.36" r="2.4" fill="#147d55" stroke="#ffffff" stroke-width="1"/>
<circle cx="455.88" cy="270.68" r="2.4" fill="#147d55" stroke="#ffffff" stroke-width="1"/>
<circle cx="467.6" cy="275.1" r="2.4" fill="#147d55" stroke="#ffffff" stroke-width="1"/>
<circle cx="479.31" cy="236.15" r="2.4" fill="#147d55" stroke="#ffffff" stroke-width="1"/>
<circle cx="491.02" cy="225.38" r="2.4" fill="#147d55" stroke="#ffffff" stroke-width="1"/>
<circle cx="502.74" cy="237.55" r="2.4" fill="#147d55" stroke="#ffffff" stroke-width="1"/>
<circle cx="514.45" cy="213.25" r="2.4" fill="#147d55" stroke="#ffffff" stroke-width="1"/>
<circle cx="526.17" cy="187.73" r="2.4" fill="#147d55" stroke="#ffffff" stroke-width="1"/>
<circle cx="537.88" cy="178.39" r="2.4" fill="#147d55" stroke="#ffffff" stroke-width="1"/>
<circle cx="549.6" cy="180.91" r="2.4" fill="#147d55" stroke="#ffffff" stroke-width="1"/>
<circle cx="561.31" cy="171.49" r="2.4" fill="#147d55" stroke="#ffffff" stroke-width="1"/>
<circle cx="573.02" cy="211.61" r="2.4" fill="#147d55" stroke="#ffffff" stroke-width="1"/>
<circle cx="584.74" cy="240.34" r="2.4" fill="#147d55" stroke="#ffffff" stroke-width="1"/>
<circle cx="596.45" cy="210.65" r="2.4" fill="#147d55" stroke="#ffffff" stroke-width="1"/>
<circle cx="608.17" cy="223.61" r="2.4" fill="#147d55" stroke="#ffffff" stroke-width="1"/>
<circle cx="619.88" cy="229.54" r="2.4" fill="#147d55" stroke="#ffffff" stroke-width="1"/>
<circle cx="631.6" cy="220.77" r="2.4" fill="#147d55" stroke="#ffffff" stroke-width="1"/>
<circle cx="643.31" cy="195.3" r="2.4" fill="#147d55" stroke="#ffffff" stroke-width="1"/>
<circle cx="655.02" cy="156.02" r="2.4" fill="#147d55" stroke="#ffffff" stroke-width="1"/>
<circle cx="666.74" cy="157.48" r="2.4" fill="#147d55" stroke="#ffffff" stroke-width="1"/>
<circle cx="678.45" cy="159.97" r="2.4" fill="#147d55" stroke="#ffffff" stroke-width="1"/>
<circle cx="690.17" cy="148.36" r="2.4" fill="#147d55" stroke="#ffffff" stroke-width="1"/>
<circle cx="701.88" cy="152.21" r="2.4" fill="#147d55" stroke="#ffffff" stroke-width="1"/>
<circle cx="713.6" cy="168.1" r="2.4" fill="#147d55" stroke="#ffffff" stroke-width="1"/>
<circle cx="725.31" cy="132.74" r="2.4" fill="#147d55" stroke="#ffffff" stroke-width="1"/>
<circle cx="737.02" cy="147.34" r="2.4" fill="#147d55" stroke="#ffffff" stroke-width="1"/>
<circle cx="748.74" cy="152.64" r="2.4" fill="#147d55" stroke="#ffffff" stroke-width="1"/>
<circle cx="760.45" cy="157.96" r="2.4" fill="#147d55" stroke="#ffffff" stroke-width="1"/>
<circle cx="772.17" cy="186.62" r="2.4" fill="#147d55" stroke="#ffffff" stroke-width="1"/>
<circle cx="783.88" cy="175.83" r="2.4" fill="#147d55" stroke="#ffffff" stroke-width="1"/>
<circle cx="795.6" cy="172.23" r="2.4" fill="#147d55" stroke="#ffffff" stroke-width="1"/>
<circle cx="807.31" cy="188.82" r="2.4" fill="#147d55" stroke="#ffffff" stroke-width="1"/>
<circle cx="819.02" cy="190.39" r="2.4" fill="#147d55" stroke="#ffffff" stroke-width="1"/>
<circle cx="830.74" cy="201.72" r="2.4" fill="#147d55" stroke="#ffffff" stroke-width="1"/>
<circle cx="842.45" cy="191.57" r="2.4" fill="#147d55" stroke="#ffffff" stroke-width="1"/>
<circle cx="854.17" cy="217.18" r="2.4" fill="#147d55" stroke="#ffffff" stroke-width="1"/>
<circle cx="865.88" cy="234.79" r="2.4" fill="#147d55" stroke="#ffffff" stroke-width="1"/>
<circle cx="877.6" cy="207.08" r="2.4" fill="#147d55" stroke="#ffffff" stroke-width="1"/>
<circle cx="889.31" cy="195.59" r="2.4" fill="#147d55" stroke="#ffffff" stroke-width="1"/>
<circle cx="901.02" cy="222.62" r="2.4" fill="#147d55" stroke="#ffffff" stroke-width="1"/>
<circle cx="912.74" cy="198.64" r="2.4" fill="#147d55" stroke="#ffffff" stroke-width="1"/>
<circle cx="924.45" cy="238.55" r="2.4" fill="#147d55" stroke="#ffffff" stroke-width="1"/>
<circle cx="936.17" cy="217.92" r="2.4" fill="#147d55" stroke="#ffffff" stroke-width="1"/>
<circle cx="947.88" cy="230.5" r="2.4" fill="#147d55" stroke="#ffffff" stroke-width="1"/>
<circle cx="959.6" cy="221.77" r="2.4" fill="#147d55" stroke="#ffffff" stroke-width="1"/>
<circle cx="971.31" cy="271.77" r="2.4" fill="#147d55" stroke="#ffffff" stroke-width="1"/>
<circle cx="983.02" cy="289.26" r="2.4" fill="#147d55" stroke="#ffffff" stroke-width="1"/>
<circle cx="994.74" cy="267" r="2.4" fill="#147d55" stroke="#ffffff" stroke-width="1"/>
<circle cx="1006.45" cy="282.72" r="2.4" fill="#147d55" stroke="#ffffff" stroke-width="1"/>
<circle cx="1018.17" cy="271.46" r="2.4" fill="#147d55" stroke="#ffffff" stroke-width="1"/>
<circle cx="1029.88" cy="299.37" r="2.4" fill="#147d55" stroke="#ffffff" stroke-width="1"/>
<circle cx="1041.6" cy="278.45" r="2.4" fill="#147d55" stroke="#ffffff" stroke-width="1"/>
<circle cx="1053.31" cy="278.54" r="2.4" fill="#147d55" stroke="#ffffff" stroke-width="1"/>
<circle cx="1065.02" cy="282.31" r="2.4" fill="#147d55" stroke="#ffffff" stroke-width="1"/>
<circle cx="1066" cy="275.29" r="2.4" fill="#147d55" stroke="#ffffff" stroke-width="1"/>
<text x="82" y="578" font-size="12" class="muted">2026-07-03 06:50:21 UTC</text>
<text x="1066" y="578" font-size="12" text-anchor="end" class="muted">2026-07-08 09:50:15 UTC</text>
<text x="82" y="602" font-size="12" class="muted">Generated UTC 2026-07-08 09:51:39; source 192.168.0.101:5432/polycopytrader</text>
</svg>
