<svg xmlns="http://www.w3.org/2000/svg" width="1400" height="760" viewBox="0 0 1400 760">
  <rect width="100%" height="100%" fill="#ffffff"/>
  <text x="92" y="34" font-family="Segoe UI, Arial" font-size="24" font-weight="700" fill="#0f172a">ETH Up or Down 5m 1 Diff Reference Average Premarket</text>
  <text x="92" y="58" font-family="Segoe UI, Arial" font-size="14" fill="#475569">Paper cumulative PnL, server database 192.168.0.101</text>
  <rect x="92" y="78" width="1274" height="596" fill="#f8fafc" stroke="#cbd5e1"/>
  <line x1="92.0" y1="674.0" x2="1366.0" y2="674.0" stroke="#e5e7eb" stroke-width="1" />
<text x="80.0" y="678.0" font-family="Segoe UI, Arial" font-size="13" fill="#475569" text-anchor="end">-39</text>
<line x1="92.0" y1="554.8" x2="1366.0" y2="554.8" stroke="#e5e7eb" stroke-width="1" />
<text x="80.0" y="558.8" font-family="Segoe UI, Arial" font-size="13" fill="#475569" text-anchor="end">16</text>
<line x1="92.0" y1="435.6" x2="1366.0" y2="435.6" stroke="#e5e7eb" stroke-width="1" />
<text x="80.0" y="439.6" font-family="Segoe UI, Arial" font-size="13" fill="#475569" text-anchor="end">72</text>
<line x1="92.0" y1="316.4" x2="1366.0" y2="316.4" stroke="#e5e7eb" stroke-width="1" />
<text x="80.0" y="320.4" font-family="Segoe UI, Arial" font-size="13" fill="#475569" text-anchor="end">127</text>
<line x1="92.0" y1="197.2" x2="1366.0" y2="197.2" stroke="#e5e7eb" stroke-width="1" />
<text x="80.0" y="201.2" font-family="Segoe UI, Arial" font-size="13" fill="#475569" text-anchor="end">182</text>
<line x1="92.0" y1="78.0" x2="1366.0" y2="78.0" stroke="#e5e7eb" stroke-width="1" />
<text x="80.0" y="82.0" font-family="Segoe UI, Arial" font-size="13" fill="#475569" text-anchor="end">238</text>

  <line x1="92" y1="590.1624721629" x2="1366" y2="590.1624721629" stroke="#64748b" stroke-width="1.5" stroke-dasharray="6 5"/>
  <polyline points="92.00,590.16 93.63,603.12 95.27,616.08 96.90,604.59 98.53,592.21 100.17,579.73 101.80,567.77 103.43,580.72 105.07,569.68 106.70,582.64 108.33,595.60 109.97,585.23 111.60,574.19 113.23,563.81 114.87,576.77 116.50,564.32 118.13,577.28 119.77,567.51 121.40,557.32 123.03,570.28 124.67,583.24 126.30,570.79 127.93,558.34 129.57,545.89 131.20,558.85 132.83,571.81 134.47,561.20 136.10,574.16 137.73,562.20 139.37,550.71 141.00,563.67 142.63,576.63 144.27,564.67 145.90,577.62 147.53,590.58 149.17,603.54 150.80,616.50 152.43,629.45 154.07,617.96 155.70,630.92 157.33,618.47 158.97,631.43 160.60,619.94 162.23,632.90 163.87,620.94 165.50,608.97 167.13,621.93 168.77,609.48 170.40,597.03 172.03,609.99 173.67,622.95 175.30,610.99 176.93,599.03 178.57,586.58 180.20,574.13 181.83,587.08 183.47,575.12 185.10,588.08 186.73,576.12 188.37,563.95 190.00,576.91 191.63,566.31 193.27,579.27 194.90,566.60 196.53,579.56 198.17,592.52 199.80,580.07 201.43,593.03 203.07,581.07 204.70,569.11 206.33,582.06 207.97,595.02 209.60,583.53 211.23,571.57 212.87,559.12 214.50,546.16 216.13,534.20 217.77,521.24 219.40,534.20 221.03,547.16 222.67,536.12 224.30,523.16 225.93,536.12 227.57,524.18 229.20,512.49 230.83,525.44 232.47,513.95 234.10,502.63 235.73,490.67 237.37,503.63 239.00,491.67 240.63,504.62 242.27,517.58 243.90,505.62 245.53,518.58 247.17,507.09 248.80,494.13 250.43,481.68 252.07,469.72 253.70,457.76 255.33,445.31 256.97,432.35 258.60,445.31 260.23,432.86 261.87,421.82 263.50,434.78 265.13,447.74 266.77,436.04 268.40,449.00 270.03,437.51 271.67,450.47 273.30,438.51 274.93,426.54 276.57,439.50 278.20,426.54 279.83,439.50 281.47,452.46 283.10,465.42 284.73,478.38 286.37,491.33 288.00,478.38 289.63,491.33 291.27,477.85 292.90,465.89 294.53,452.50 296.17,465.45 297.80,478.41 299.43,466.65 301.07,452.62 302.70,442.01 304.33,454.97 305.97,467.93 307.60,480.89 309.23,493.85 310.87,506.80 312.50,495.77 314.13,508.72 315.77,495.77 317.40,508.72 319.03,521.68 320.67,508.72 322.30,521.68 323.93,534.64 325.57,547.60 327.20,534.93 328.83,523.49 330.47,536.45 332.10,549.40 333.73,537.73 335.37,527.13 337.00,514.17 338.63,502.68 340.27,515.64 341.90,504.14 343.53,491.70 345.17,481.32 346.80,468.24 348.43,455.79 350.07,468.74 351.70,481.70 353.33,494.66 354.97,483.62 356.60,471.66 358.23,458.70 359.87,471.66 361.50,458.83 363.13,446.87 364.77,434.91 366.40,422.66 368.03,410.21 369.67,398.72 371.30,388.11 372.93,401.07 374.57,414.03 376.20,426.99 377.83,415.87 379.47,405.27 381.10,392.31 382.73,405.27 384.37,418.22 386.00,431.18 387.63,444.14 389.27,457.10 390.90,470.06 392.53,459.87 394.17,447.42 395.80,434.47 397.43,421.51 399.07,408.02 400.70,398.23 402.33,387.62 403.97,375.66 405.60,363.70 407.23,376.66 408.87,389.62 410.50,376.91 412.13,389.87 413.77,377.91 415.40,390.87 417.03,379.62 418.67,392.57 420.30,381.53 421.93,394.49 423.57,407.45 425.20,420.41 426.83,433.37 428.47,423.18 430.10,411.22 431.73,424.18 433.37,437.14 435.00,450.10 436.63,463.06 438.27,451.56 439.90,464.52 441.53,452.87 443.17,465.83 444.80,453.38 446.43,466.34 448.07,454.84 449.70,440.23 451.33,453.19 452.97,441.16 454.60,429.20 456.23,442.16 457.87,455.12 459.50,444.52 461.13,433.91 462.77,421.46 464.40,434.42 466.03,421.97 467.67,434.93 469.30,447.89 470.93,460.85 472.57,448.40 474.20,434.91 475.83,424.73 477.47,437.69 479.10,425.27 480.73,414.67 482.37,427.63 484.00,416.13 485.63,429.09 487.27,418.49 488.90,431.45 490.53,419.49 492.17,432.45 493.80,445.40 495.43,434.80 497.07,447.76 498.70,435.31 500.33,448.27 501.97,437.23 503.60,425.53 505.23,414.04 506.87,402.15 508.50,415.10 510.13,402.65 511.77,415.61 513.40,428.57 515.03,441.53 516.67,454.49 518.30,467.44 519.93,456.41 521.57,469.36 523.20,458.02 524.83,470.98 526.47,483.93 528.10,496.89 529.73,509.85 531.37,498.81 533.00,511.77 534.63,524.73 536.27,537.68 537.90,527.50 539.53,540.46 541.17,529.42 542.80,518.51 544.43,531.47 546.07,519.55 547.70,507.59 549.33,520.55 550.97,533.51 552.60,546.46 554.23,536.28 555.87,549.24 557.50,537.36 559.13,525.39 560.77,538.35 562.40,551.31 564.03,539.35 565.67,528.12 567.30,516.63 568.93,504.67 570.57,492.22 572.20,478.73 573.83,491.69 575.47,504.65 577.10,494.05 578.73,483.01 580.37,495.97 582.00,483.52 583.63,496.48 585.27,509.43 586.90,496.98 588.53,482.37 590.17,468.89 591.80,454.27 593.43,467.23 595.07,450.74 596.70,463.70 598.33,476.66 599.97,489.61 601.60,502.57 603.23,515.53 604.87,528.49 606.50,517.45 608.13,505.49 609.77,518.45 611.40,506.95 613.03,495.46 614.67,508.42 616.30,521.38 617.93,510.78 619.57,499.29 621.20,486.84 622.83,499.79 624.47,487.35 626.10,475.38 627.73,488.34 629.37,476.01 631.00,463.56 632.63,476.51 634.27,489.47 635.90,502.43 637.53,515.39 639.17,503.43 640.80,491.94 642.43,504.89 644.07,493.20 645.70,479.71 647.33,466.23 648.97,452.74 650.60,440.29 652.23,428.33 653.87,416.37 655.50,403.92 657.13,416.88 658.77,405.38 660.40,418.34 662.03,405.93 663.67,418.88 665.30,431.84 666.93,444.80 668.57,457.76 670.20,447.98 671.83,436.98 673.47,425.02 675.10,412.57 676.73,400.12 678.37,413.08 680.00,426.04 681.63,414.08 683.27,427.04 684.90,414.59 686.53,427.54 688.17,440.50 689.80,453.46 691.43,466.42 693.07,479.38 694.70,466.93 696.33,479.88 697.97,492.84 699.60,481.15 701.23,494.11 702.87,507.06 704.50,495.57 706.13,508.53 707.77,497.29 709.40,510.25 711.03,523.21 712.67,511.72 714.30,499.76 715.93,512.71 717.57,500.75 719.20,513.71 720.83,502.22 722.47,489.77 724.10,477.32 725.73,490.28 727.37,478.32 729.00,491.28 730.63,504.23 732.27,492.74 733.90,505.70 735.53,493.91 737.17,481.95 738.80,494.91 740.43,507.87 742.07,497.71 743.70,486.68 745.33,475.64 746.97,488.60 748.60,501.55 750.23,490.52 751.87,478.55 753.50,466.59 755.13,455.10 756.77,468.06 758.40,481.02 760.03,470.64 761.67,483.60 763.30,473.83 764.93,486.79 766.57,499.74 768.20,488.70 769.83,476.81 771.47,489.76 773.10,479.16 774.73,492.12 776.37,479.86 778.00,467.41 779.63,480.37 781.27,467.92 782.90,455.47 784.53,468.43 786.17,481.39 787.80,469.43 789.43,482.38 791.07,471.35 792.70,458.90 794.33,471.85 795.97,484.81 797.60,473.86 799.23,486.82 800.87,476.62 802.50,489.58 804.13,478.09 805.77,466.13 807.40,479.08 809.03,465.60 810.67,452.64 812.30,465.60 813.93,478.55 815.57,491.51 817.20,480.02 818.83,492.98 820.47,505.94 822.10,495.76 823.73,508.71 825.37,521.67 827.00,510.59 828.63,523.55 830.27,536.51 831.90,525.32 833.53,538.27 835.17,551.23 836.80,564.19 838.43,577.15 840.07,566.54 841.70,579.50 843.33,569.32 844.97,582.28 846.60,571.68 848.23,558.19 849.87,544.15 851.50,529.28 853.13,514.88 854.77,499.67 856.40,484.46 858.03,469.25 859.67,482.20 861.30,495.16 862.93,481.68 864.57,494.63 866.20,507.59 867.83,495.14 869.47,483.18 871.10,496.14 872.73,483.69 874.37,496.65 876.00,483.26 877.63,496.22 879.27,509.17 880.90,522.13 882.53,535.09 884.17,524.40 885.80,513.36 887.43,503.18 889.07,516.14 890.70,504.65 892.33,492.75 893.97,505.71 895.60,518.66 897.23,507.63 898.87,520.58 900.50,533.54 902.13,522.74 903.77,535.70 905.40,523.25 907.03,512.21 908.67,525.17 910.30,513.68 911.93,526.64 913.57,515.60 915.20,502.64 916.83,489.16 918.47,502.11 920.10,489.16 921.73,476.71 923.37,464.26 925.00,451.81 926.63,437.20 928.27,422.99 929.90,410.12 931.53,423.08 933.17,436.03 934.80,424.07 936.43,411.62 938.07,399.17 939.70,389.40 941.33,377.44 942.97,390.39 944.60,403.35 946.23,392.31 947.87,405.27 949.50,392.82 951.13,405.78 952.77,393.49 954.40,381.04 956.03,394.00 957.67,382.03 959.30,370.07 960.93,357.41 962.57,345.04 964.20,357.99 965.83,370.95 967.47,358.99 969.10,371.95 970.73,384.91 972.37,372.95 974.00,360.98 975.63,349.02 977.27,361.98 978.90,349.02 980.53,336.57 982.17,323.83 983.80,310.34 985.43,323.30 987.07,309.26 988.70,295.78 990.33,308.73 991.97,321.69 993.60,334.65 995.23,322.95 996.87,335.91 998.50,348.87 1000.13,338.27 1001.77,351.23 1003.40,364.18 1005.03,352.29 1006.67,340.63 1008.30,329.59 1009.93,317.63 1011.57,304.67 1013.20,291.19 1014.83,304.14 1016.47,291.69 1018.10,304.65 1019.73,293.16 1021.37,306.12 1023.00,295.08 1024.63,308.04 1026.27,295.59 1027.90,283.14 1029.53,296.10 1031.17,285.50 1032.80,274.46 1034.43,287.41 1036.07,275.72 1037.70,288.68 1039.33,276.72 1040.97,264.76 1042.60,252.10 1044.23,265.05 1045.87,278.01 1047.50,266.05 1049.13,279.01 1050.77,265.52 1052.40,278.48 1054.03,266.58 1055.67,254.13 1057.30,241.17 1058.93,227.68 1060.57,216.64 1062.20,206.04 1063.83,219.00 1065.47,231.96 1067.10,244.91 1068.73,233.88 1070.37,246.83 1072.00,234.87 1073.63,247.83 1075.27,236.34 1076.90,249.30 1078.53,262.26 1080.17,251.65 1081.80,239.69 1083.43,229.51 1085.07,218.02 1086.70,230.98 1088.33,219.71 1089.97,207.26 1091.60,220.22 1093.23,233.18 1094.87,246.14 1096.50,259.10 1098.13,248.49 1099.77,261.45 1101.40,249.00 1103.03,261.96 1104.67,251.36 1106.30,239.87 1107.93,252.83 1109.57,242.22 1111.20,231.18 1112.83,244.14 1114.47,257.10 1116.10,244.14 1117.73,231.57 1119.37,218.61 1121.00,231.57 1122.63,220.05 1124.27,207.55 1125.90,220.51 1127.53,210.33 1129.17,198.37 1130.80,211.32 1132.43,200.09 1134.07,188.98 1135.70,177.02 1137.33,189.98 1138.97,202.94 1140.60,191.45 1142.23,204.40 1143.87,192.49 1145.50,180.04 1147.13,169.86 1148.77,182.82 1150.40,195.78 1152.03,185.59 1153.67,174.99 1155.30,163.50 1156.93,151.54 1158.57,164.50 1160.20,177.46 1161.83,190.41 1163.47,203.37 1165.10,190.41 1166.73,203.37 1168.37,191.41 1170.00,178.96 1171.63,191.92 1173.27,182.91 1174.90,195.87 1176.53,183.42 1178.17,196.38 1179.80,209.34 1181.43,222.30 1183.07,235.25 1184.70,248.21 1186.33,261.17 1187.97,274.13 1189.60,263.53 1191.23,276.48 1192.87,264.52 1194.50,277.48 1196.13,265.99 1197.77,278.95 1199.40,267.91 1201.03,280.87 1202.67,293.83 1204.30,281.86 1205.93,294.82 1207.57,282.37 1209.20,295.33 1210.83,308.29 1212.47,321.25 1214.10,334.20 1215.73,323.17 1217.37,310.72 1219.00,296.68 1220.63,309.64 1222.27,296.15 1223.90,283.70 1225.53,296.66 1227.17,309.62 1228.80,296.70 1230.43,283.74 1232.07,269.70 1233.70,256.22 1235.33,245.18 1236.97,232.73 1238.60,220.77 1240.23,233.73 1241.87,246.68 1243.50,234.24 1245.13,247.19 1246.77,234.24 1248.40,221.28 1250.03,207.97 1251.67,220.93 1253.30,233.89 1254.93,222.40 1256.57,235.36 1258.20,224.32 1259.83,212.83 1261.47,225.79 1263.10,238.74 1264.73,251.70 1266.37,240.66 1268.00,253.62 1269.63,266.58 1271.27,256.40 1272.90,243.44 1274.53,256.40 1276.17,243.44 1277.80,230.99 1279.43,243.95 1281.07,233.77 1282.70,223.99 1284.33,236.95 1285.97,249.91 1287.60,262.87 1289.23,251.17 1290.87,264.13 1292.50,277.09 1294.13,265.60 1295.77,253.63 1297.40,240.68 1299.03,227.72 1300.67,214.76 1302.30,201.80 1303.93,188.46 1305.57,201.42 1307.20,214.38 1308.83,204.12 1310.47,192.63 1312.10,205.58 1313.73,218.54 1315.37,207.50 1317.00,195.54 1318.63,182.06 1320.27,195.01 1321.90,183.05 1323.53,196.01 1325.17,184.05 1326.80,197.01 1328.43,185.05 1330.07,198.00 1331.70,185.05 1333.33,198.00 1334.97,185.05 1336.60,172.09 1338.23,157.48 1339.87,170.43 1341.50,183.39 1343.13,196.35 1344.77,183.87 1346.40,171.91 1348.03,158.95 1349.67,171.91 1351.30,158.95 1352.93,171.91 1354.57,184.87 1356.20,172.42 1357.83,159.46 1359.47,172.42 1361.10,159.46 1362.73,146.01 1364.37,132.52 1366.00,119.10 " fill="none" stroke="#2563eb" stroke-width="3" stroke-linejoin="round" stroke-linecap="round"/>
  <circle cx="1366" cy="119.103448275862" r="4.5" fill="#2563eb"/>
  <text x="92" y="710" font-family="Segoe UI, Arial" font-size="15" fill="#0f172a">Records 780 | PnL +218.46 | ROI +4.66% | W/L/F 424/356/0 | Max DD 101.37</text>
  <text x="92" y="733" font-family="Segoe UI, Arial" font-size="13" fill="#475569">Period UTC: 2026-07-03 06:55:36 - 2026-07-08 06:09:53</text>
  <text x="1366" y="733" font-family="Segoe UI, Arial" font-size="13" fill="#475569" text-anchor="end">Generated UTC: 2026-07-08 06:11:36</text>
</svg>
