<svg xmlns="http://www.w3.org/2000/svg" width="1100" height="620" viewBox="0 0 1100 620">
<rect width="100%" height="100%" fill="#ffffff"/>
<style>text{font-family:Segoe UI,Arial,sans-serif;fill:#1f2937}.muted{fill:#6b7280}.grid{stroke:#e5e7eb;stroke-width:1}.axis{stroke:#9ca3af;stroke-width:1.2}.zero{stroke:#111827;stroke-width:1.2;stroke-dasharray:5 5}</style>
<text x="82" y="34" font-size="22" font-weight="700">ETH Up or Down 5m 10 Diff Reference Average Premarket</text>
<text x="82" y="58" font-size="14" class="muted">Paper cumulative PnL, 12 settled records, total +40.77 USD, ROI +56.56%</text>
<line x1="82" y1="542" x2="1066" y2="542" class="grid"/>
<text x="70" y="546" font-size="12" text-anchor="end" class="muted">-5.61</text>
<line x1="82" y1="427" x2="1066" y2="427" class="grid"/>
<text x="70" y="431" font-size="12" text-anchor="end" class="muted">8.89</text>
<line x1="82" y1="312" x2="1066" y2="312" class="grid"/>
<text x="70" y="316" font-size="12" text-anchor="end" class="muted">23.38</text>
<line x1="82" y1="197" x2="1066" y2="197" class="grid"/>
<text x="70" y="201" font-size="12" text-anchor="end" class="muted">37.88</text>
<line x1="82" y1="82" x2="1066" y2="82" class="grid"/>
<text x="70" y="86" font-size="12" text-anchor="end" class="muted">52.38</text>
<line x1="82" y1="497.48" x2="1066" y2="497.48" class="zero"/>
<line x1="82" y1="82" x2="82" y2="542" class="axis"/>
<line x1="82" y1="542" x2="1066" y2="542" class="axis"/>
<polyline fill="none" stroke="#147d55" stroke-width="3" stroke-linejoin="round" stroke-linecap="round" points="82,456.88 171.45,416.28 260.91,376.13 350.36,332.3 439.82,379.97 529.27,342.52 618.73,298.8 708.18,254.8 797.64,213.51 887.09,170.22 976.55,126.52 1066,174.11"/>
<circle cx="82" cy="456.88" r="4" fill="#147d55" stroke="#ffffff" stroke-width="1.5"/>
<circle cx="171.45" cy="416.28" r="4" fill="#147d55" stroke="#ffffff" stroke-width="1.5"/>
<circle cx="260.91" cy="376.13" r="4" fill="#147d55" stroke="#ffffff" stroke-width="1.5"/>
<circle cx="350.36" cy="332.3" r="4" fill="#147d55" stroke="#ffffff" stroke-width="1.5"/>
<circle cx="439.82" cy="379.97" r="4" fill="#147d55" stroke="#ffffff" stroke-width="1.5"/>
<circle cx="529.27" cy="342.52" r="4" fill="#147d55" stroke="#ffffff" stroke-width="1.5"/>
<circle cx="618.73" cy="298.8" r="4" fill="#147d55" stroke="#ffffff" stroke-width="1.5"/>
<circle cx="708.18" cy="254.8" r="4" fill="#147d55" stroke="#ffffff" stroke-width="1.5"/>
<circle cx="797.64" cy="213.51" r="4" fill="#147d55" stroke="#ffffff" stroke-width="1.5"/>
<circle cx="887.09" cy="170.22" r="4" fill="#147d55" stroke="#ffffff" stroke-width="1.5"/>
<circle cx="976.55" cy="126.52" r="4" fill="#147d55" stroke="#ffffff" stroke-width="1.5"/>
<circle cx="1066" cy="174.11" r="4" fill="#147d55" stroke="#ffffff" stroke-width="1.5"/>
<text x="82" y="578" font-size="12" class="muted">2026-07-05 01:29:50 UTC</text>
<text x="1066" y="578" font-size="12" text-anchor="end" class="muted">2026-07-05 18:04:55 UTC</text>
<text x="82" y="602" font-size="12" class="muted">Generated UTC 2026-07-08 06:45:34; source 192.168.0.101:5432/polycopytrader</text>
</svg>
